<?xml version="1.0" encoding="iso-8859-1"?>
<!-- Generator: Adobe Illustrator 19.0.0, SVG Export Plug-In . SVG Version: 6.00 Build 0)  -->
<svg version="1.1" id="Layer_1" xmlns="http://www.w3.org/2000/svg" xmlns:xlink="http://www.w3.org/1999/xlink" x="0px" y="0px"
	 viewBox="0 0 504 504" style="enable-background:new 0 0 504 504;" xml:space="preserve">
<circle style="fill:#B8E6E8;" cx="252" cy="252" r="244"/>
<path style="fill:#CCF2F1;" d="M8,252C8,117.6,117.6,8,252,8"/>
<path style="fill:#87C2CC;" d="M252,8c134.4,0,244,109.6,244,244S386.4,496,252,496"/>
<path style="fill:#EA789B;" d="M252,347.2c-3.2,0-5.6-1.6-7.2-4L87.2,74.4c-1.6-2.4-1.6-7.2,0-9.6c1.6-1.6,4-4.8,7.2-4.8h315.2
	c3.2,0,5.6,3.2,7.2,5.6s1.6,6.4,0,8.8l-157.6,268C257.6,344.8,255.2,347.2,252,347.2z"/>
<path style="fill:#EF9EBB;" d="M98.4,60c-4,8-8,8-11.2,11.2c0,0.8,0.8,2.4,0.8,2.4l36,60.8L197.6,60H98.4z"/>
<path style="fill:#CE93CE;" d="M405.6,60H252v287.2c3.2,0,5.6-1.6,7.2-4L412.8,74.4c0-0.8,4.8-2.4,4.8-3.2
	C413.6,68,409.6,68,405.6,60z"/>
<path style="fill:#6CB0B7;" d="M496,252c0,134.4-109.6,244-244,244"/>
<path style="fill:#CE93CE;" d="M409.6,436H94.4c-3.2,0-5.6,0-7.2-2.4s-1.6-4.8,0-7.2l157.6-268c3.2-4.8,11.2-4.8,13.6,0l157.6,268
	c1.6,2.4,1.6,4,0,6.4C415.2,436,412.8,436,409.6,436z"/>
<path style="fill:#EA789B;" d="M408.8,436c3.2,0,5.6-4,8.8-6.4c0-1.6-1.6-0.8-2.4-1.6l-156-269.6c-1.6-2.4-4-3.2-7.2-3.2V436H408.8z
	"/>
<path style="fill:#D65C88;" d="M408.8,436c3.2,0,5.6-4,8.8-6.4c0-1.6-1.6-0.8-2.4-1.6L380,366.4L308.8,436H408.8z"/>
<g>
	<path style="fill:#2F5068;" d="M252,504C112.8,504,0,391.2,0,252S112.8,0,252,0s252,112.8,252,252S391.2,504,252,504z M252,16
		C121.6,16,16,121.6,16,252s105.6,236,236,236s236-105.6,236-236S382.4,16,252,16z"/>
	<path style="fill:#2F5068;" d="M409.6,436H94.4c-3.2,0-5.6,0-7.2-2.4s-1.6-4.8,0-7.2l157.6-268c3.2-4.8,11.2-4.8,13.6,0l157.6,268
		c1.6,2.4,1.6,4,0,6.4C415.2,436,412.8,436,409.6,436z M108,420h288L252,176L108,420z"/>
	<path style="fill:#2F5068;" d="M409.6,348H94.4c-3.2,0-5.6-2.4-7.2-4.8s-1.6-5.6,0-8L244.8,66.4c3.2-4.8,11.2-4.8,13.6,0l157.6,268
		c1.6,2.4,1.6,6.4,0,8.8C415.2,345.6,412.8,348,409.6,348z M108,332h288L252,88L108,332z"/>
	<path style="fill:#2F5068;" d="M252,347.2c-3.2,0-5.6-1.6-7.2-4L87.2,74.4c-1.6-2.4-1.6-7.2,0-9.6c1.6-1.6,4-4.8,7.2-4.8h315.2
		c3.2,0,5.6,3.2,7.2,5.6s1.6,6.4,0,8.8l-157.6,268C257.6,344.8,255.2,347.2,252,347.2z M108,76l144,244L396,76H108z"/>
	<path style="fill:#2F5068;" d="M252,431.2c-3.2,0-5.6-1.6-7.2-4L87.2,158.4c-1.6-2.4-1.6-4.8,0-7.2s4-3.2,7.2-3.2h315.2
		c3.2,0,5.6,0.8,7.2,3.2s1.6,5.6,0,8l-157.6,268C257.6,429.6,255.2,431.2,252,431.2z M108,164l144,244l144-244H108z"/>
</g>
<path style="fill:#E2C23D;" d="M205.6,252c0-12.8,20.8-30.4,46.4-30.4s46.4,17.6,46.4,30.4"/>
<path style="fill:#2F5068;" d="M298.4,260c-4.8,0-8-3.2-8-8c0-7.2-16.8-22.4-38.4-22.4s-38.4,15.2-38.4,22.4c0,4.8-3.2,8-8,8
	s-8-3.2-8-8c0-17.6,24-38.4,54.4-38.4s54.4,20.8,54.4,38.4C306.4,256.8,302.4,260,298.4,260z"/>
<path style="fill:#EAAC1F;" d="M298.4,252c0,12.8-20.8,30.4-46.4,30.4s-46.4-17.6-46.4-30.4"/>
<g>
	<path style="fill:#2F5068;" d="M252,290.4c-30.4,0-54.4-20.8-54.4-38.4c0-4.8,3.2-8,8-8s8,3.2,8,8c0,7.2,16.8,22.4,38.4,22.4
		s38.4-15.2,38.4-22.4c0-4.8,3.2-8,8-8s8,3.2,8,8C306.4,269.6,282.4,290.4,252,290.4z"/>
	<circle style="fill:#2F5068;" cx="252" cy="252" r="16"/>
</g>
<g>
</g>
<g>
</g>
<g>
</g>
<g>
</g>
<g>
</g>
<g>
</g>
<g>
</g>
<g>
</g>
<g>
</g>
<g>
</g>
<g>
</g>
<g>
</g>
<g>
</g>
<g>
</g>
<g>
</g>
</svg>
