<?xml version="1.0" encoding="UTF-8" standalone="no"?>
<!-- Created with Inkscape (http://www.inkscape.org/) -->

<svg
   xmlns:dc="http://purl.org/dc/elements/1.1/"
   xmlns:cc="http://creativecommons.org/ns#"
   xmlns:rdf="http://www.w3.org/1999/02/22-rdf-syntax-ns#"
   xmlns:svg="http://www.w3.org/2000/svg"
   xmlns="http://www.w3.org/2000/svg"
   xmlns:sodipodi="http://sodipodi.sourceforge.net/DTD/sodipodi-0.dtd"
   xmlns:inkscape="http://www.inkscape.org/namespaces/inkscape"
   width="990"
   height="1530"
   id="svg2"
   version="1.1"
   inkscape:version="0.48.0 r9654"
   sodipodi:docname="Y001-STROKE.svg">
  <defs
     id="defs4" />
  <sodipodi:namedview
     id="base"
     pagecolor="#ffffff"
     bordercolor="#666666"
     borderopacity="1.0"
     inkscape:pageopacity="0.0"
     inkscape:pageshadow="2"
     inkscape:zoom="0.49497475"
     inkscape:cx="397.60377"
     inkscape:cy="897.08846"
     inkscape:document-units="mm"
     inkscape:current-layer="layer1"
     showgrid="true"
     units="in"
     inkscape:window-width="1280"
     inkscape:window-height="1005"
     inkscape:window-x="-4"
     inkscape:window-y="-4"
     inkscape:window-maximized="1">
    <inkscape:grid
       type="xygrid"
       id="grid2985"
       units="mm"
       empspacing="5"
       visible="true"
       enabled="true"
       snapvisiblegridlinesonly="true"
       spacingy="10mm"
       spacingx="10mm" />
  </sodipodi:namedview>
  <metadata
     id="metadata7">
    <rdf:RDF>
      <cc:Work
         rdf:about="">
        <dc:format>image/svg+xml</dc:format>
        <dc:type
           rdf:resource="http://purl.org/dc/dcmitype/StillImage" />
        <dc:title />
      </cc:Work>
    </rdf:RDF>
  </metadata>
  <g
     inkscape:label="Layer 1"
     inkscape:groupmode="layer"
     id="layer1"
     transform="translate(0,477.63802)">
    <path
       id="path3899"
       style="fill:none;stroke:#000000;stroke-width:1.25;stroke-miterlimit:4;stroke-opacity:1;stroke-dasharray:none"
       d="M 565.59717,293.53766 C 553.65823,430.00041 433.35487,530.94695 296.89212,519.00801 160.42934,507.06907 59.482843,386.76567 71.421786,250.30292 83.360732,113.84014 203.66409,12.893644 340.12686,24.83259 476.58962,36.771534 577.53612,157.07488 565.59717,293.53766 z m -0.80692,6.12944 C 541.00322,434.57003 412.35958,524.64732 277.45666,500.86024 142.55373,477.07315 52.476484,348.42958 76.26351,213.52665 100.05054,78.623703 228.69417,-11.453532 363.59712,12.333493 498.50004,36.120515 588.57727,164.76414 564.79025,299.6671 z m -1.33806,6.03572 C 527.99811,438.01922 391.99326,516.54163 259.67686,481.08758 127.36044,445.63353 48.83801,309.62867 84.292084,177.31227 119.74616,44.99584 255.75102,-33.526592 388.06743,1.9275004 520.38383,37.381571 598.90628,173.38641 563.45219,305.70282 z m -1.85901,5.8962 C 514.74188,440.32183 372.41087,506.69203 243.68801,459.84061 114.96512,412.98938 48.595101,270.65834 95.446396,141.93547 142.2977,13.212586 284.62869,-53.157441 413.35158,-6.306154 542.07444,40.545152 608.44449,182.87613 561.59318,311.59902 z m -2.36582,5.71184 C 501.33542,441.46051 353.76149,495.173 229.6118,437.28114 105.46209,379.38919 51.749592,231.81524 109.64154,107.66555 167.5335,-16.484159 315.10742,-70.196668 439.25713,-12.304704 563.40682,45.587238 617.11933,193.16115 559.22736,317.31086 z m -2.85467,5.48379 C 487.88068,441.42632 336.18696,482.07242 217.55531,413.58055 98.923652,345.08848 58.277466,193.39475 126.76948,74.7631 195.2615,-43.868555 346.95521,-84.514756 465.58687,-16.022725 584.21851,52.469285 624.86473,204.16297 556.37269,322.79465 z m -3.32172,5.21413 C 474.48016,440.2196 319.82113,467.49016 207.61038,388.91929 95.39963,310.34848 68.1291,155.68943 146.69991,43.4787 225.27073,-68.732056 379.92975,-96.002613 492.14051,-17.431786 604.35124,61.139021 631.62178,215.79803 553.05097,328.00878 z m -3.76346,4.9048 C 461.23587,437.84947 304.78856,451.53687 199.85273,363.48518 94.916868,275.43354 81.22953,118.98624 169.28116,14.050397 257.3328,-90.885466 413.78007,-104.57282 518.71593,-16.52118 c 104.93585,88.051617 118.62322,244.4989 30.57158,349.43476 z m -4.1767,4.55814 c -96.86234,96.86244 -253.90722,96.86228 -350.76957,5e-5 -96.862338,-96.86236 -96.862312,-253.907256 2e-5,-350.769594 96.86234,-96.862346 253.90723,-96.862346 350.76956,-3e-6 96.86234,96.862332 96.86234,253.907217 -10e-6,350.769547 z m -4.55809,4.17669 C 435.61689,429.70001 279.16959,416.01265 191.11795,311.07687 103.06631,206.141 116.7537,49.693707 221.68954,-38.357909 326.6254,-126.40957 483.07268,-112.72221 571.12432,-7.7863285 659.17596,97.149505 645.48859,253.59678 540.55272,341.64841 z m -4.90469,3.76367 C 423.4373,423.98289 268.77826,396.71236 190.20744,284.50163 111.63662,172.29088 138.9072,17.631842 251.11794,-60.938967 363.3287,-139.5098 517.98772,-112.23924 596.55853,-0.02848939 675.12933,112.18225 647.85878,266.84126 535.64803,345.41208 z m -5.21416,3.32178 C 411.80224,417.22588 260.10849,376.5797 191.61648,257.94806 123.12445,139.3164 163.77069,-12.377321 282.40233,-80.869337 401.034,-149.36138 552.7277,-108.71516 621.21973,9.916501 689.71175,128.54813 649.06553,280.24185 530.43387,348.73386 z M 524.95,351.58861 C 400.80032,409.48056 253.22636,355.76807 195.33441,231.61839 137.44245,107.46869 191.155,-40.105259 315.30468,-97.997208 439.4544,-155.88916 587.02832,-102.17665 644.92026,21.973059 702.81221,146.12273 649.0997,293.69665 524.95,351.58861 z m -5.71168,2.36588 C 390.51546,400.80579 248.18443,334.43578 201.33313,205.71291 154.48183,76.990024 220.8519,-65.340998 349.57476,-112.1923 478.29767,-159.04359 620.62865,-92.673557 667.47995,36.049331 714.33124,164.77219 647.96121,307.1032 519.23832,353.95449 z m -5.89619,1.85909 C 381.02574,391.26767 245.02085,312.74523 209.56678,180.42884 174.1127,48.112415 252.63517,-87.892442 384.95158,-123.34651 517.26799,-158.8006 653.27285,-80.278158 688.72691,52.038251 724.181,184.35466 645.65856,320.35952 513.34213,355.81358 z m -6.03589,1.33813 C 372.40332,380.93873 243.75964,290.86151 219.97262,155.95857 196.18559,21.05563 286.26286,-107.58801 421.16578,-131.37503 556.06874,-155.16206 684.71236,-65.084826 708.4994,69.818137 732.28642,204.72105 642.20918,333.36467 507.30624,357.15171 z m -6.12928,0.80699 C 364.71421,369.89764 244.41081,268.95114 232.47187,132.48839 220.53293,-3.9743904 321.47946,-124.27776 457.94223,-136.2167 594.405,-148.15564 714.70834,-47.20912 726.6473,89.253652 738.58625,225.7164 637.63973,346.01976 501.17696,357.9587 z m -6.17641,0.2697 c -136.98403,10e-6 -248.03156,-111.0475 -248.03156,-248.03151 0,-136.984039 111.04753,-248.03154 248.03156,-248.03154 136.98404,1e-5 248.03155,111.047502 248.03154,248.03154 0,136.98401 -111.04749,248.03151 -248.03154,248.03151 z m -6.17646,-0.26962 C 352.36133,346.01983 251.41478,225.71647 263.35372,89.253723 275.29267,-47.209053 395.59607,-148.15555 532.05883,-136.21661 668.52161,-124.27766 769.46811,-3.9743046 757.52916,132.48847 745.59022,268.95122 625.28686,369.89772 488.82409,357.95878 z m -6.12944,-0.80693 C 347.79172,333.36483 257.71444,204.72119 281.50147,69.818282 305.28849,-65.08467 433.93216,-155.16191 568.8351,-131.37488 703.73803,-107.58786 793.81528,21.055782 770.02824,155.95873 746.24122,290.86164 617.59758,380.93889 482.69465,357.15185 z m -6.03575,-1.33808 C 344.3425,320.3597 265.82003,184.35483 301.2741,52.03844 336.72818,-80.277978 472.73308,-158.80041 605.04947,-123.34634 737.36589,-87.892262 815.88832,48.112598 780.43425,180.42901 744.98018,312.74541 608.97532,391.26784 476.6589,355.81377 z m -5.89619,-1.85902 C 342.03984,307.10346 275.66977,164.77243 322.52106,36.049569 369.37237,-92.67332 511.70339,-159.04333 640.42626,-112.19204 769.14917,-65.340729 835.5192,76.990253 788.66789,205.71314 741.8166,334.43601 599.4856,400.80605 470.76271,353.95475 z m -5.71184,-2.36583 C 340.9012,293.69696 287.18863,146.12304 345.08059,21.973355 402.97256,-102.17636 550.54649,-155.88885 674.69618,-97.996899 798.84589,-40.104936 852.5584,107.46898 794.66646,231.61867 736.7745,355.76836 589.20058,409.48087 465.05087,351.58892 z m -5.48378,-2.85474 C 340.93545,280.24215 300.28921,128.54843 368.78122,9.9168 437.27325,-108.71488 588.96699,-149.36106 707.59864,-80.869042 826.2303,-12.377011 866.8765,139.31668 798.38447,257.94835 729.89246,376.57999 578.19876,417.22619 459.56709,348.73418 z m -5.21403,-3.3218 C 342.1423,266.84158 314.87173,112.18254 393.44253,-0.02819072 472.01336,-112.23895 626.67241,-139.50949 738.88315,-60.938654 851.0939,17.632154 878.36444,172.29116 799.79363,284.50192 721.22281,396.71265 566.56379,423.98321 454.35306,345.41238 z m -4.90489,-3.76355 C 344.51232,253.5972 330.82492,97.149912 418.87655,-7.7859519 506.92819,-112.7218 663.37549,-126.40915 768.31134,-38.357507 873.2472,49.694131 886.93457,206.14139 798.88293,311.07726 710.8313,416.0131 554.38403,429.70047 449.44817,341.64883 z m -4.55808,-4.17679 c -96.86231,-96.86234 -96.86235,-253.907241 -2e-5,-350.769559 96.86236,-96.862361 253.90726,-96.862341 350.7696,0 96.86233,96.862353 96.86233,253.907239 -2e-5,350.769569 -96.86233,96.86234 -253.9072,96.86234 -350.76956,-1e-5 z m -4.17657,-4.55808 C 352.66189,227.9781 366.34923,71.530808 471.28507,-16.52083 576.22094,-104.57247 732.66824,-90.885079 820.71985,14.050772 908.77151,118.98662 895.08415,275.4339 790.14827,363.48554 685.21244,451.53719 528.76516,437.84983 440.71352,332.91396 z m -3.76367,-4.90469 C 358.37904,215.79852 385.64956,61.139478 497.86031,-17.43133 610.07106,-96.002158 764.7301,-68.73156 843.30091,43.479169 921.87174,155.68991 894.60118,310.34894 782.39043,388.91975 670.17969,467.49051 515.52069,440.21992 436.94985,328.00927 z m -3.32168,-5.21407 C 365.13615,204.16354 405.78233,52.469812 524.41399,-16.022203 643.04565,-84.514217 794.73936,-43.867984 863.23137,74.763655 931.72341,193.39531 891.07719,345.08902 772.44553,413.58106 653.8139,482.07303 502.12019,441.42678 433.62817,322.7952 z m -2.85473,-5.48387 C 372.88149,193.16163 426.59398,45.587697 550.74366,-12.304252 674.89337,-70.196219 822.46729,-16.483666 880.35924,107.66601 938.25121,231.81571 884.5387,379.38963 760.389,437.28159 636.23929,495.17356 488.66538,441.46105 430.77344,317.31133 z m -2.36578,-5.71167 C 381.55636,182.87677 447.92638,40.545751 576.64924,-6.3055445 705.37213,-53.156838 847.70313,13.213233 894.55443,141.9361 941.40574,270.65898 875.03571,412.98997 746.31283,459.84124 617.58993,506.6926 475.25896,440.32247 428.40766,311.59966 z m -1.85913,-5.89619 C 391.09446,173.38706 469.61688,37.382184 601.93329,1.9280979 734.2497,-33.525968 870.25458,44.99651 905.70864,177.31289 941.16273,309.62932 862.64029,445.63416 730.32387,481.08817 598.00747,516.54236 462.00261,438.01994 426.54853,305.70347 z m -1.33805,-6.03571 C 401.42345,164.76484 491.50068,36.121164 626.40361,12.334146 761.30655,-11.45289 889.95019,78.624384 913.73722,213.52732 937.52426,348.43027 847.44701,477.07384 712.54406,500.861 577.64114,524.64796 448.9975,434.57074 425.21048,299.66776 z m -0.80704,-6.12938 C 412.4645,157.07563 513.411,36.772251 649.87377,24.83331 786.33654,12.894349 906.6399,113.8409 918.57884,250.30365 930.51778,386.76642 829.57128,507.06982 693.10849,519.00874 556.64575,530.94766 436.3424,430.00119 424.40344,293.53838 z m -0.26963,-6.17641 c 0,-136.98402 111.04749,-248.031557 248.0315,-248.031557 136.98405,5e-6 248.03154,111.047527 248.03154,248.031557 0,136.98405 -111.04749,248.03155 -248.03155,248.0316 -136.98399,-1.4e-4 -248.0315,-111.04755 -248.03149,-248.0316 z m 0.26964,-6.17646 C 436.34239,144.72276 556.64575,43.77622 693.1085,55.715164 829.57128,67.65411 930.51778,187.9575 918.57883,324.42025 906.63989,460.88303 786.33654,561.82945 649.87376,549.89051 513.41101,537.95156 412.4645,417.64829 424.40345,281.18551 z m 0.80694,-6.12943 C 448.99742,140.15314 577.64105,50.075874 712.54399,73.862898 847.44692,97.649922 937.52415,226.29359 913.73713,361.19652 889.9501,496.09943 761.30646,586.17679 626.40353,562.38971 491.50061,538.60262 401.42337,409.95901 425.21039,275.05608 z m 1.3381,-6.03575 C 462.00259,136.70393 598.00743,58.181466 730.32383,93.635537 862.64025,129.0896 941.16267,265.0945 905.7086,397.4109 870.25454,529.72722 734.24966,608.24983 601.93326,572.79558 469.61686,537.34153 391.09442,401.33675 426.54849,269.02033 z m 1.85905,-5.89619 C 475.25884,134.40127 617.58985,68.031189 746.31272,114.88249 875.03561,161.7338 941.40561,304.06482 894.55433,432.78769 847.70301,561.51068 705.37203,627.88068 576.64915,581.02926 447.92627,534.17803 381.55623,391.84703 428.40754,263.12414 z m 2.36584,-5.71184 C 488.66534,133.26261 636.23926,79.550067 760.38895,137.44202 884.53866,195.33397 938.25115,342.90792 880.35921,467.05762 822.46725,591.20725 674.89333,644.91973 550.74363,587.02787 426.59394,529.13601 372.88142,381.56201 430.77338,257.4123 z m 2.85471,-5.48378 C 502.1201,133.29688 653.81381,92.650643 772.44547,161.14265 891.07712,229.63468 931.7233,381.32841 863.23129,499.96003 794.73927,618.5918 643.04557,659.23791 524.41392,590.74583 405.78225,522.25396 365.13605,370.56017 433.62809,251.92852 z m 3.32175,-5.21406 C 515.52067,134.50373 670.1797,107.23315 782.39044,185.80396 894.60117,264.37478 921.87171,419.03384 843.3009,531.24463 764.73007,643.45535 610.07106,670.72591 497.8603,592.1551 385.64957,513.58429 358.37903,358.92522 436.94984,246.71446 z m 3.76348,-4.90477 C 528.76496,136.87384 685.21227,123.18646 790.14811,211.23807 895.08396,299.28971 908.7713,455.73701 820.71966,560.67294 732.66803,665.60866 576.22076,679.29607 471.2849,591.24443 366.34906,503.1928 352.66168,346.74555 440.71332,241.80969 z m 4.17672,-4.55806 c 96.86233,-96.86234 253.90724,-96.86236 350.76958,-3e-5 96.86233,96.86234 96.86232,253.90718 -3e-5,350.76968 -96.86233,96.8623 -253.90722,96.86234 -350.76954,-1.8e-4 -96.86234,-96.86231 -96.86235,-253.90714 -10e-6,-350.76947 z m 4.55804,-4.1766 C 554.38393,145.02342 710.83123,158.71074 798.88285,263.64659 886.9345,368.58245 873.2471,525.02976 768.31126,613.08148 663.37539,701.133 506.92813,687.44563 418.87647,582.5099 330.82486,477.57397 344.51222,321.12669 449.44808,233.07503 z m 4.9047,-3.76365 c 112.21075,-78.57081 266.8698,-51.30029 345.44061,60.91046 78.57081,112.21075 51.30023,266.86973 -60.91049,345.44052 -112.21079,78.57099 -266.86979,51.30039 -345.44062,-60.91032 -78.57079,-112.21091 -51.30024,-266.86985 60.9105,-345.44066 z m 5.21417,-3.32169 c 118.63166,-68.49202 270.3254,-27.84582 338.81741,90.78582 68.49202,118.63165 27.84577,270.32547 -90.78586,338.81748 C 588.96684,724.08501 437.27313,683.43875 368.78112,564.80704 300.28909,446.17552 340.93529,294.48172 459.56695,225.98969 z m 5.48376,-2.85475 c 124.1497,-57.89194 271.72365,-4.17945 329.6156,119.97025 57.89194,124.14976 4.1794,271.72359 -119.97028,329.61554 C 550.54633,730.61268 402.97241,676.90017 345.08044,552.7505 287.18849,428.60084 340.901,281.02691 465.05071,223.13494 z m 5.71168,-2.36577 c 128.72287,-46.8513 271.0539,19.51873 317.90519,148.2416 46.8513,128.72289 -19.51876,271.05399 -148.24164,317.90515 C 511.70305,733.76727 369.37207,667.39714 322.52075,538.67433 275.66946,409.95146 342.03948,267.62048 470.76239,220.76917 z m 5.89608,-1.859 C 608.97486,183.45608 744.97976,261.97852 780.43383,394.29491 815.88791,526.6114 737.36543,662.61628 605.04903,698.07026 472.73263,733.52425 336.72777,655.00183 301.2737,522.68548 265.81961,390.36909 344.34204,254.36423 476.65847,218.91017 z m 6.03581,-1.33808 C 617.59721,193.78508 746.24087,283.86231 770.0279,418.76524 793.81492,553.66818 703.73765,682.31177 568.83471,706.09893 433.93178,729.88589 305.28814,639.80867 281.50112,504.90573 257.71409,370.00277 347.79134,241.35913 482.69428,217.57209 z m 6.12936,-0.80696 C 625.28641,204.82619 745.58979,305.77269 757.52874,442.23544 769.4677,578.69823 668.52114,699.00157 532.05839,710.94049 395.59563,722.87941 275.29226,621.93294 263.35333,485.47009 251.41437,349.00742 352.36087,228.70407 488.82364,216.76513 z m 6.17642,-0.26963 c 136.98403,0 248.03157,111.04749 248.03156,248.0316 10e-6,136.98389 -111.04753,248.03144 -248.03156,248.0315 -136.98405,6e-5 -248.03154,-111.04756 -248.03153,-248.03164 0,-136.98397 111.04749,-248.03145 248.03153,-248.03146 z m 6.17638,0.26971 C 637.6392,228.70415 738.58574,349.00751 726.64678,485.47037 714.70784,621.93312 594.40445,722.87954 457.9417,710.94059 321.47892,699.00165 220.53241,578.69837 232.47135,442.23562 244.41031,305.77276 364.71367,204.82626 501.17644,216.76521 z m 6.12943,0.807 C 642.2088,241.35924 732.28608,370.00288 708.49905,504.90585 684.712,639.80884 556.06835,729.88599 421.16543,706.09891 286.26246,682.31202 196.18523,553.66833 219.97227,418.76534 243.75929,283.86243 372.40292,193.78519 507.30587,217.57221 z m 6.03575,1.33811 c 132.3164,35.45407 210.83887,171.45893 175.3848,303.77529 C 653.27232,655.00211 517.26744,733.52452 384.95104,698.07046 252.63462,662.61641 174.11218,526.61157 209.56627,394.29507 245.02034,261.97867 381.0252,183.45624 513.34162,218.91032 z m 5.89609,1.85905 C 647.96058,267.62066 714.33064,409.95166 667.47936,538.67445 620.62806,667.39734 478.29702,733.76734 349.57414,686.91612 220.85125,640.06489 154.48122,497.73393 201.33253,369.01096 248.18382,240.28809 390.51482,173.91806 519.23771,220.76937 z m 5.71172,2.36583 C 649.09912,281.02714 702.81166,428.60109 644.91972,552.75082 587.02776,676.90045 439.45383,730.61293 315.30413,672.72107 191.15442,614.82901 137.44191,467.25507 195.33386,343.10544 253.22581,218.95575 400.79974,165.24324 524.94943,223.1352 z m 5.48378,2.85471 c 118.63166,68.49201 159.2779,220.18573 90.78587,338.81734 -68.49202,118.63178 -220.18577,159.27787 -338.8174,90.7858 C 163.77001,587.10118 123.12382,435.40737 191.61584,316.77573 260.10785,198.14408 411.80156,157.49788 530.43321,225.98991 z m 5.21405,3.32175 C 647.858,307.88249 675.12859,462.54161 596.55776,574.75232 517.98696,686.96304 363.32791,714.23359 251.11717,635.66279 138.90641,557.09198 111.63587,402.43285 190.20669,290.22213 268.7775,178.01139 423.43651,150.74086 535.64726,229.31166 z m 4.90468,3.76346 C 645.4878,321.12675 659.1752,477.57398 571.12356,582.50991 483.07191,687.44583 326.62462,701.13304 221.68877,613.0814 116.75291,525.02976 103.06554,368.58256 191.11719,263.64669 279.16882,158.71085 435.6161,145.02348 540.55194,233.07512 z m 4.55806,4.17671 c 96.86234,96.86233 96.86237,253.90732 4e-5,350.76962 -96.86235,96.8623 -253.90726,96.86234 -350.7696,2e-5 -96.862325,-96.86251 -96.862331,-253.90732 1e-5,-350.76965 96.86233,-96.86234 253.90722,-96.86234 350.76955,1e-5 z m 4.1767,4.55803 C 637.33833,346.74571 623.651,503.19294 518.71514,591.24465 413.77928,679.29637 257.33199,665.6088 169.28035,560.67307 81.228713,455.73714 94.916073,299.28991 199.85193,211.23826 304.78778,123.18664 461.23504,136.874 549.2867,241.80986 z m 3.76357,4.9047 C 631.62108,358.92529 604.35056,513.58434 492.13981,592.15512 379.92906,670.72591 225.27003,643.45531 146.69922,531.2446 68.128391,419.03389 95.398945,264.37487 207.6097,185.80406 c 112.21074,-78.5708 266.86974,-51.30027 345.44057,60.9105 z m 3.32174,5.21411 c 68.49201,118.63164 27.84584,270.32538 -90.7858,338.81739 C 346.95455,659.23808 195.26082,618.59182 126.76881,499.9601 58.276778,381.32854 98.922985,229.63483 217.55464,161.14282 336.18628,92.650805 487.88,133.29699 556.37201,251.92867 z m 2.85464,5.48377 C 617.1186,381.56212 563.40609,529.13617 439.25641,587.02812 315.10671,644.92007 167.53279,591.20736 109.64083,467.05769 51.748872,342.90803 105.46139,195.33412 229.61109,137.44217 353.76077,79.550228 501.3347,133.26274 559.22665,257.41244 z m 2.36582,5.71167 C 608.44376,391.84698 542.07376,534.17792 413.35088,581.02928 284.62799,627.88063 142.29698,561.5105 95.445685,432.78769 48.594384,304.06478 114.96442,161.73378 243.68731,114.88249 372.41017,68.031195 514.74117,134.40122 561.59247,263.12411 z m 1.85903,5.89608 C 598.90557,401.3366 520.38315,537.3415 388.06675,572.79549 255.75033,608.24967 119.74546,529.72726 84.291402,397.41071 48.837319,265.09434 127.35976,129.0895 259.67617,93.635417 391.99258,58.181351 527.99742,136.70378 563.4515,269.02019 z m 1.3381,6.03581 C 588.57662,409.95892 498.49938,538.60261 363.59646,562.38956 228.69351,586.17672 100.04988,496.0993 76.262852,361.19644 52.475823,226.2935 142.55306,97.649884 277.45601,73.862848 412.35893,50.07581 541.00257,140.15306 564.7896,275.056 z m 0.80694,6.12938 C 577.53548,417.64813 476.58899,537.95151 340.12622,549.89043 203.66346,561.82935 83.360093,460.88288 71.42115,324.42011 59.482204,187.95734 160.42871,67.653981 296.89149,55.715041 433.35424,43.776098 553.65758,144.72259 565.59654,281.18538 z m 0.26966,6.1764 c 0,136.98403 -111.0475,248.03159 -248.03151,248.03165 C 180.85065,535.39329 69.803143,424.34587 69.803148,287.36179 69.803149,150.37774 180.85065,39.330265 317.83468,39.330248 454.8187,39.330251 565.8662,150.37776 565.8662,287.36178 z"
       inkscape:connector-curvature="0" />
    <path
       sodipodi:type="arc"
       style="fill:#000000;fill-opacity:1;stroke:none"
       id="path3760"
       sodipodi:cx="513.77954"
       sodipodi:cy="768.18896"
       sodipodi:rx="17.716536"
       sodipodi:ry="17.716536"
       d="m 531.49608,768.18896 a 17.716536,17.716536 0 1 1 -35.43307,0 17.716536,17.716536 0 1 1 35.43307,0 z"
       transform="matrix(0.17638889,0,0,0.17638889,404.375,151.86198)" />
  </g>
</svg>
